<svg width="0" height="0" style="position:absolute"><symbol viewBox="0 0 32 32" id="arrow-left" xmlns="http://www.w3.org/2000/svg"><path d="m12.586 27.414-10-10a2 2 0 0 1 0-2.828l10-10a2 2 0 1 1 2.828 2.828L8.828 14H28a2 2 0 1 1 0 4H8.828l6.586 6.586c.39.39.586.902.586 1.414s-.195 1.024-.586 1.414a2 2 0 0 1-2.828 0z"/></symbol><symbol viewBox="0 0 32 32" id="arrow-right" xmlns="http://www.w3.org/2000/svg"><path d="m19.414 27.414 10-10a2 2 0 0 0 0-2.828l-10-10a2 2 0 1 0-2.828 2.828L23.172 14H4a2 2 0 1 0 0 4h19.172l-6.586 6.586c-.39.39-.586.902-.586 1.414s.195 1.024.586 1.414a2 2 0 0 0 2.828 0z"/></symbol><symbol viewBox="0 0 256 256" id="divider" xmlns="http://www.w3.org/2000/svg"><path fill-rule="evenodd" d="M255.825 131.577c-21.057 8.726-37.838 16.578-50.344 23.56-12.506 6.98-22.25 13.9-29.23 20.765-6.863 6.864-13.785 16.52-20.765 28.968s-14.95 29.49-23.908 51.13h-7.154c-9.075-21.64-17.102-38.682-24.082-51.13s-13.843-22.104-20.59-28.968c-6.98-6.864-16.724-13.786-29.23-20.766-12.507-6.98-29.347-14.833-50.52-23.56v-7.153c21.29-8.726 38.188-16.578 50.694-23.56 12.506-6.98 22.19-13.9 29.055-20.765 6.747-6.864 13.61-16.52 20.59-28.968S115.35 21.64 124.424 0h7.154c8.958 21.64 16.927 38.682 23.908 51.13 6.98 12.448 13.902 22.104 20.766 28.968 6.748 6.864 16.375 13.786 28.882 20.766 12.506 6.98 29.404 14.833 50.693 23.56v7.153z"/></symbol><symbol viewBox="0 0 320 320" id="icon-cloud" xmlns="http://www.w3.org/2000/svg"><path d="M286.4 144.4c19.2-29.8-.6-53.1-26.9-58.5 8.7-9.8 9.6-24.7-1.3-33.3-5.9-4.6-13.4-6-19.9-4.1 4.9-36.8-53.2-47.1-63.5-12.6-8.7-3.4-16.8-3.8-24-2-.1-.6-.3-1.3-.7-1.9-13.9-21.9-46-15.8-63.1-1.6-14.1 11.7-29.2 35.8-20 54.2-8.5-.3-15.4 5.2-20.5 11.6-5.9 7.3-9.8 16.1-11.6 25.3-.5 2.6-.9 5.8-.9 9-11.2-4.6-23.8 2.2-28.1 15.6-2.6 8.1-.8 16.5 4.4 23.1 5.3 6.7 17.5 11.1 25.9 8.3 38.1 7.8 76.3 5.1 115.5 3 37.4-2 75.7 9.7 112.6 4.3 21.6-3 48.1-31.8 22.1-40.4zM260.9 173c-11.6.8-23.2.5-34.8-.8-19.7-1.4-39.1-3.8-58.9-4.3-43.7-1.2-86.7 4.2-130.4 2.4-5.9-2.7-12.7-2.1-17.7-7.2-3.4-3.4-3.9-8.6-2.8-13.1 2.5-10.3 11.3-12.7 19.5-8.9.9 1.9 2.3 3.6 4.1 4.7 3.2 2 7.2-.6 7.3-4.2.1-5.3-2.2-9.8-1.3-15.4.9-6.3 3.5-12.1 6.5-17.6 2.7-4.8 6.3-9.2 11.3-11.8 5.6-3 10.6 2.2 13.6 6.4 2.3 3.3 8.8 1.3 7-3-2.2-5.1-5.2-10.3-9.8-13.2-3.3-19.2 3.5-34.8 19.6-47 6.8-5.1 14.8-8.8 23.3-9.8 9.4-1.1 15.7 3.4 22.8 8.3-15.7 10.4-22.3 33.6-10 56.4 1.7 3.1 6.6 1 5.6-2.4-8.3-28.6 7-62.3 40.3-42.2 4.2 2.5 8.9-.8 9.2-5.3.9-14.2 13.7-20.5 26.7-18.1 17.5 3.2 14.4 20.1 9.6 32.6-2.5 6.5 7.9 10.7 11.1 4.7.9-1.7 1.6-3.3 2.3-4.9 4.8-2.7 10.4-2.8 15.1 1.2 6.1 5.1 4.8 12 .2 17.6-1.8 2.2-1.8 4.7-.8 6.8-13.5-.5-27.6 3.7-38.5 13.8-8.9-13.9-28-23.5-41.8-11.1-2.1 1.9.2 4.7 2.5 4.3 14.6-2.7 28.7 3.6 31.8 19.3 1.1 5.7 8.2 5.1 11 1.4 24.8-32.6 87.5-12.2 57.9 30.1-1.9 2.7-1.2 5.3.6 7 .4 1.3 1.5 2.5 3.4 3.1 2.6 12.5-2.6 19.3-15.5 20.2zM47.6 183.6c-4.8-2.1-9.5 1.2-9.3 6.5.2 6.4 1.3 12.8 2.3 19.1.7 4.8 7.2 2.9 7.7-1 .5-3.8.5-7.6.7-11.4 0-.5.1-1 .1-1.6.7-.6 1.2-1.2 1.4-2 .9-3.2.7-8-2.9-9.6zm9.6 53.4c-.8-3.2-4.5-4.5-7.3-3-6.7 3.6-5 17.4-3.8 23.6.8 4.3 7.7 4.3 8.6 0 .7-3.6.7-7.3 1.2-11 .5-3.3 2.2-6.1 1.3-9.6z"/><path d="M116.1 184c-1-1-2.2-1.5-3.3-1.4-1.1-.1-2.3.4-3.3 1.4-1.7 1.1-3 2.9-2.9 5.1.2 5 .1 11.5 1.8 16.2 1.6 4.3 7.3 4.3 8.8 0 1.7-4.7 1.5-11.2 1.8-16.2.1-2.2-1.2-4-2.9-5.1zm3.9 40.9c0-1.2-.2-2.4-.8-3.5-1.4-2.4-4.1-3.3-6.7-2.7-6.2 1.3-4.3 9.2-3.8 13.5l1.2 8.7c.1.9.4 1.9.6 2.8.3.9 1.5 4.7.8 1.7.7 3.4 6.3 3.5 7 0-.9 1.5-.9 1.6 0 .4.2-.4.4-.8.5-1.3.3-.9.3-2.1.5-3 .3-2.1.2-4.2.3-6.3 0-2.2.1-4.4.2-6.6 0-.5 0-.9.1-1.4.1-.8.1-1.5.1-2.3zm0 0c.1-.3.1-.3 0 0zm-5.1 41.3c-1.1 5.3-1 10.3-.1 15.6.6 4.1 7.6 4.1 8.3 0 .6-3.6.7-7.8 2.3-11.2 3.6-7.9-8.9-12.2-10.5-4.4zm59.6-81c.2-.8.1-1 0 0z"/><path d="M183.7 183c-1.7-1.9-4.6-2-6.7-.9-1.6.8-2.4 2.3-2.6 3.9 0-.3.1-.7.1-.8-.1.3-.2.6-.3 1.1-.3 1-.3 2-.3 3 0 1.9-.3 3.9-.4 5.8-.3 3.1-1.2 7.2-.1 10.2 1.1 2.9 5.8 4.4 7.4 1 1.5-3.3 2.3-7 3.2-10.5 1-4.3 3.1-9.2-.3-12.8zm1.3 40.6c.3-2.7-2-4.7-4.2-5.5-1-.4-2.1-.4-3.1 0-2.2.9-4.6 2.9-4.2 5.5.9 7 1 14.5 4.4 20.8 1.8 3.3 7.7 2 7.3-2-.6-6.4-1-12.5-.2-18.8zm-.9 37.5c-1.3-3.8-5.6-4.9-8.6-2.3-2.6 2.2-2.1 5.9-2.4 9-.3 3.6-.8 7.5.6 10.9 1.1 2.7 5.7 2.5 6.9 0 1.3-2.6 1.5-5.7 2.1-8.6.8-2.9 2.4-6.1 1.4-9zm58.1-53.7c-.1-4.4.6-9.7-2.7-13.1-2.5-2.5-6.6-1.8-8.4 1.1-2.4 3.8-.7 8.4 0 12.4.9 5.1 1.4 10.5 2.7 15.5 1 3.9 7 4 7.9 0 1.1-5.1.6-10.8.5-15.9zm5.8 30.5c-1.2-1.8-3.3-3-5.6-2.3-5 1.6-5.3 5.8-6.3 10.3-1 4.4-1.8 8.9-2.9 13.4-1.4 6 6.7 7.8 8.9 2.5 1.6-3.7 3-7.5 4.3-11.3 1.5-4.1 4.4-8.6 1.6-12.6z"/></symbol><symbol viewBox="0 0 30 30" id="icon-codepen" xmlns="http://www.w3.org/2000/svg"><path fill-rule="evenodd" d="m29.556 9.5-14-9.332a1 1 0 0 0-1.11 0L.446 9.5C.168 9.688 0 10 0 10.334v9.334c0 .334.168.646.446.832l14 9.332a1 1 0 0 0 1.108 0l14-9.333c.278-.187.446-.5.446-.833v-9.334c0-.334-.168-.646-.446-.832h.002zm-14.554 8.963L9.804 15l5.198-3.465L20.2 15l-5.198 3.463zm1-8.666v-6.93L27.2 10.332l-5.198 3.465-6-4v.002zm-2 0-6 4-5.198-3.464L14.002 2.87V9.8v-.003zM6.2 15l-4.198 2.797V12.2L6.2 15zm1.802 1.2 6 4v6.93L2.804 19.667l5.198-3.464V16.2zm8 4 6-4 5.198 3.465-11.198 7.463v-6.93.003zm7.802-5.2 4.198-2.8v5.597L23.804 15z"/></symbol><symbol viewBox="0 0 32 32" id="icon-feed" xmlns="http://www.w3.org/2000/svg"><path d="M4.26 23.467A4.267 4.267 0 0 0 0 27.72c0 2.348 1.91 4.243 4.26 4.243a4.25 4.25 0 0 0 4.264-4.244 4.265 4.265 0 0 0-4.265-4.256zM.004 10.873v6.133c3.993 0 7.75 1.562 10.577 4.39A14.898 14.898 0 0 1 14.968 32h6.16c0-11.65-9.478-21.127-21.12-21.127zM.012 0v6.136C14.255 6.136 25.848 17.74 25.848 32H32C32 14.36 17.648 0 .012 0z"/></symbol><symbol viewBox="0 0 32 32" id="icon-github" xmlns="http://www.w3.org/2000/svg"><path d="M0 17.388c0 1.45.136 2.762.407 3.935s.647 2.193 1.127 3.06 1.09 1.626 1.83 2.284c.742.657 1.545 1.195 2.41 1.612s1.855.75 2.966 1.01c1.11.26 2.245.44 3.403.55s2.43.15 3.818.15c1.4 0 2.68-.052 3.84-.156s2.3-.287 3.41-.548 2.11-.6 2.98-1.018c.87-.42 1.68-.956 2.43-1.614s1.36-1.42 1.847-2.286.863-1.885 1.134-3.06c.27-1.172.407-2.484.407-3.933 0-2.586-.866-4.824-2.597-6.712.092-.25.18-.532.256-.85s.15-.772.22-1.36c.068-.59.04-1.27-.08-2.043s-.34-1.56-.663-2.364l-.235-.04c-.166-.03-.44-.022-.82.025s-.825.14-1.33.283c-.507.14-1.16.412-1.957.814s-1.64.902-2.525 1.51C20.75 6.22 18.66 6.01 16 6.01c-2.65 0-4.73.21-6.255.63-.89-.61-1.735-1.11-2.545-1.51s-1.453-.676-1.933-.817c-.48-.14-.928-.232-1.346-.274s-.68-.06-.79-.04-.194.032-.256.053c-.324.803-.546 1.59-.666 2.363s-.15 1.453-.08 2.04.14 1.044.218 1.36c.078.32.164.604.258.855-1.734 1.894-2.6 4.13-2.6 6.72zm3.928 3.927c0-1.502.683-2.88 2.05-4.13.407-.377.88-.66 1.424-.854s1.155-.3 1.84-.32c.682-.024 1.337-.02 1.963.018s1.398.086 2.316.15c.92.06 1.72.093 2.38.093s1.46-.03 2.38-.093c.92-.065 1.69-.114 2.32-.15s1.28-.04 1.968-.017c.683.024 1.296.134 1.84.33s1.016.474 1.423.85c1.368 1.23 2.05 2.607 2.05 4.13 0 .897-.11 1.693-.336 2.386s-.51 1.276-.86 1.746-.835.868-1.456 1.197c-.62.33-1.225.58-1.814.76s-1.348.31-2.27.41c-.924.1-1.748.16-2.47.18s-1.65.03-2.765.03-2.038-.01-2.763-.03c-.724-.02-1.55-.08-2.47-.18s-1.68-.236-2.27-.414c-.59-.178-1.194-.43-1.815-.76s-1.106-.73-1.454-1.2c-.35-.47-.638-1.05-.86-1.747s-.34-1.485-.34-2.38zM20 21c0-1.657.895-3 2-3s2 1.343 2 3-.895 3-2 3-2-1.343-2-3zM8 21c0-1.657.895-3 2-3s2 1.343 2 3-.895 3-2 3-2-1.343-2-3z"/></symbol><symbol viewBox="0 0 98 100" id="icon-json-feed" xmlns="http://www.w3.org/2000/svg"><g fill-rule="evenodd"><path d="m29.9 78.66.146.147c5.835-5.835 10.055-5.386 17.1 1.66L58.28 91.6c11.58 11.58 22.396 10.996 35.323-1.93l3.95-3.95-8.393-8.394-2.02 2.02c-7.317 7.316-12.433 7.406-19.435.404L54.643 66.688c-6.733-6.732-13.42-7.406-19.84-2.064l-1.256-1.257c5.476-6.643 4.938-12.837-1.57-19.345L20.26 32.307c-7.135-7.137-7.09-12.12.316-19.525l2.02-2.02-8.35-8.348-3.95 3.95c-12.97 12.97-13.69 23.564-2.378 34.875l9.65 9.65c7.047 7.046 7.496 11.355 1.706 17.145l.043.043a7.499 7.499 0 0 0 .342 10.24 7.499 7.499 0 0 0 10.24.343z"/><g transform="rotate(-45 74.315 -31.52)"><circle cx="7.5" cy="7.5" r="7.5"/><circle cx="32.5" cy="7.5" r="7.5"/><circle cx="57.5" cy="7.5" r="7.5"/></g></g></symbol><symbol viewBox="0 0 30 32" id="icon-lab" xmlns="http://www.w3.org/2000/svg"><path d="M28.76 25.14 18.874 8.67V2h1c.55 0 1-.45 1-1s-.45-1-1-1h-10c-.55 0-1 .45-1 1s.45 1 1 1h1v6.67L.99 25.14C-1.272 28.912.476 32 4.876 32h20c4.4 0 6.148-3.086 3.884-6.86zM6.406 20l6.468-10.78V2h4v7.22L23.344 20H6.406z" fill-rule="evenodd"/></symbol><symbol viewBox="0 0 32 32" id="icon-link" xmlns="http://www.w3.org/2000/svg"><path d="M13.757 19.868a1.62 1.62 0 0 1-1.149-.476c-2.973-2.973-2.973-7.81 0-10.783l6-6C20.048 1.169 21.963.376 24 .376s3.951.793 5.392 2.233c2.973 2.973 2.973 7.81 0 10.783l-2.743 2.743a1.624 1.624 0 1 1-2.298-2.298l2.743-2.743a4.38 4.38 0 0 0 0-6.187c-.826-.826-1.925-1.281-3.094-1.281s-2.267.455-3.094 1.281l-6 6a4.38 4.38 0 0 0 0 6.187 1.624 1.624 0 0 1-1.149 2.774zM8 31.625a7.575 7.575 0 0 1-5.392-2.233c-2.973-2.973-2.973-7.81 0-10.783l2.743-2.743a1.624 1.624 0 1 1 2.298 2.298l-2.743 2.743a4.38 4.38 0 0 0 0 6.187c.826.826 1.925 1.281 3.094 1.281s2.267-.455 3.094-1.281l6-6a4.38 4.38 0 0 0 0-6.187 1.624 1.624 0 1 1 2.298-2.298c2.973 2.973 2.973 7.81 0 10.783l-6 6A7.575 7.575 0 0 1 8 31.625z"/></symbol><symbol viewBox="0 0 32 32" id="icon-linkedin" xmlns="http://www.w3.org/2000/svg"><path d="M12 12h5.535v2.837h.08c.77-1.38 2.654-2.837 5.463-2.837C28.92 12 30 15.637 30 20.367V30h-5.77v-8.54c0-2.037-.04-4.657-3-4.657-3.005 0-3.463 2.218-3.463 4.51V30H12V12zM2 12h6v18H2V12zm6-5a3 3 0 1 1-6 0 3 3 0 0 1 6 0z"/></symbol><symbol viewBox="0 0 16 16" id="icon-stackoverflow" xmlns="http://www.w3.org/2000/svg"><path d="M16 10v6H0v-6h2v4h12v-4zM3 11h10v2H3zm.237-2.165.433-1.953 9.763 2.164L13 10.999zM4.37 4.821l.845-1.813 9.063 4.226-.845 1.813zm11.126.827-1.218 1.587-7.934-6.088L7.224 0h.91z"/></symbol><symbol viewBox="0 0 32 32" id="icon-tag" xmlns="http://www.w3.org/2000/svg"><path d="M28.994 0h-9.018c-1.653 0-3.962.956-5.13 2.125L.876 16.093a3.015 3.015 0 0 0 0 4.25l10.78 10.78a3.015 3.015 0 0 0 4.25 0l13.967-13.97c1.17-1.168 2.125-3.477 2.125-5.13V3.005A3.013 3.013 0 0 0 28.992 0zM25 10a3 3 0 1 1 0-6 3 3 0 0 1 0 6z"/></symbol><symbol viewBox="0 0 32 32" id="icon-twtr" xmlns="http://www.w3.org/2000/svg"><path d="M32 6.076a13.142 13.142 0 0 1-3.77 1.034 6.598 6.598 0 0 0 2.886-3.632c-1.27.752-2.674 1.3-4.17 1.593A6.55 6.55 0 0 0 22.156 3a6.566 6.566 0 0 0-6.565 6.565c0 .515.06 1.016.17 1.496A18.65 18.65 0 0 1 2.23 4.2a6.564 6.564 0 0 0 2.032 8.765 6.563 6.563 0 0 1-2.975-.82v.083a6.568 6.568 0 0 0 5.265 6.437 6.566 6.566 0 0 1-2.964.112 6.574 6.574 0 0 0 6.133 4.56A13.186 13.186 0 0 1 0 26.054a18.573 18.573 0 0 0 10.063 2.95c12.076 0 18.68-10.004 18.68-18.68 0-.285-.007-.568-.02-.85A13.298 13.298 0 0 0 32 6.077z"/></symbol></svg>